<svg width="39" height="36" viewBox="0 0 39 36" fill="none" xmlns="http://www.w3.org/2000/svg">
<path id="Subtract" fill-rule="evenodd" clip-rule="evenodd" d="M0.374389 23.2906C1.12627 27.0711 2.98228 30.5437 5.70774 33.2693C6.3435 33.9057 7.20604 34.2635 8.10562 34.264C9.0052 34.2645 9.86813 33.9076 10.5046 33.2718C11.141 32.6361 11.4988 31.7735 11.4993 30.874C11.4998 29.9744 11.1429 29.1114 10.5071 28.475C10.2147 28.153 10.0573 27.7308 10.0675 27.2959C10.0778 26.8609 10.2549 26.4466 10.5621 26.1387C10.8694 25.8308 11.2833 25.6528 11.7182 25.6416C12.1531 25.6305 12.5756 25.787 12.8983 26.0787L20.0872 33.2693C20.9527 34.135 21.9804 34.8218 23.1113 35.2903C24.2423 35.7588 25.4545 36 26.6787 36C27.9029 36 29.1151 35.7588 30.2461 35.2903C31.3771 34.8218 32.4047 34.135 33.2702 33.2693C35.9957 30.5437 37.8517 27.0711 38.6036 23.2906C39.3555 19.5101 38.9694 15.5916 37.4943 12.0306C36.0192 8.4695 33.5213 5.42581 30.3163 3.28439C27.1114 1.14298 23.3435 0 19.489 0C15.6345 0 11.8665 1.14298 8.66162 3.28439C5.45671 5.42581 2.95876 8.4695 1.48364 12.0306C0.00853057 15.5916 -0.377492 19.5101 0.374389 23.2906ZM19.2648 6.62365C19.7983 7.15649 20.1618 7.83561 20.3092 8.57508C20.4567 9.31456 20.3815 10.0811 20.0931 10.7779C19.8048 11.4746 19.3163 12.0701 18.6894 12.4891C18.0625 12.9082 17.3254 13.1318 16.5714 13.1318C15.8173 13.1318 15.0803 12.9082 14.4534 12.4891C13.8265 12.0701 13.338 11.4746 13.0496 10.7779C12.7613 10.0811 12.6861 9.31456 12.8335 8.57508C12.981 7.83561 13.3445 7.15649 13.878 6.62365C14.5926 5.90989 15.5613 5.50898 16.5714 5.50898C17.5814 5.50898 18.5501 5.90989 19.2648 6.62365ZM27.328 14.3935C27.971 14.2653 28.5616 13.9493 29.0249 13.4853C29.6456 12.8639 29.9942 12.0215 29.9942 11.1432C29.9942 10.265 29.6456 9.42259 29.0249 8.80116C28.5616 8.33724 27.971 8.02118 27.328 7.89296C26.685 7.76475 26.0184 7.83014 25.4125 8.08087C24.8067 8.3316 24.2888 8.75639 23.9245 9.30151C23.5601 9.84663 23.3656 10.4876 23.3656 11.1432C23.3656 11.7989 23.5601 12.4399 23.9245 12.985C24.2888 13.5301 24.8067 13.9549 25.4125 14.2056C26.0184 14.4564 26.685 14.5218 27.328 14.3935ZM33.0465 19.4859C33.0465 20.4219 32.2878 21.1806 31.3518 21.1806C30.4159 21.1806 29.6571 20.4219 29.6571 19.4859C29.6571 18.55 30.4159 17.7912 31.3518 17.7912C32.2878 17.7912 33.0465 18.55 33.0465 19.4859ZM23.3994 30.9961C22.7504 30.3472 22.3083 29.5205 22.1292 28.6203C21.95 27.7202 22.0418 26.7872 22.393 25.9393C22.7441 25.0914 23.3389 24.3666 24.1019 23.8567C24.865 23.3468 25.7621 23.0746 26.6799 23.0746C27.5977 23.0746 28.4948 23.3468 29.2579 23.8567C30.021 24.3666 30.6157 25.0914 30.9668 25.9393C31.318 26.7872 31.4098 27.7202 31.2306 28.6203C31.0515 29.5205 30.6094 30.3472 29.9604 30.9961C29.0902 31.8659 27.9103 32.3546 26.6799 32.3546C25.4496 32.3546 24.2696 31.8659 23.3994 30.9961Z" fill="#747474"/>
</svg>
