<svg width="30" height="36" viewBox="0 0 30 36" fill="none" xmlns="http://www.w3.org/2000/svg">
<path id="Subtract" fill-rule="evenodd" clip-rule="evenodd" d="M29.8696 7.36748C29.8695 6.95239 29.7045 6.55434 29.411 6.26087L23.6087 0.458609C23.3152 0.165053 22.9172 8.86631e-05 22.5021 0H1.69565C1.28053 0 0.882409 0.164906 0.588874 0.458442C0.295338 0.751977 0.130432 1.1501 0.130432 1.56522V34.4348C0.130432 34.8499 0.295338 35.248 0.588874 35.5416C0.882409 35.8351 1.28053 36 1.69565 36H28.3043C28.7195 36 29.1176 35.8351 29.4111 35.5416C29.7047 35.248 29.8696 34.8499 29.8696 34.4348V7.36748ZM5.60869 5.74537C5.01222 5.74537 4.52869 6.22891 4.52869 6.82537C4.52869 7.42184 5.01222 7.90537 5.60869 7.90537H16.5652C17.1617 7.90537 17.6452 7.42184 17.6452 6.82537C17.6452 6.22891 17.1617 5.74537 16.5652 5.74537H5.60869ZM4.52869 12.3507C4.52869 11.7542 5.01222 11.2707 5.60869 11.2707H24.3913C24.9878 11.2707 25.4713 11.7542 25.4713 12.3507C25.4713 12.9471 24.9878 13.4307 24.3913 13.4307H5.60869C5.01222 13.4307 4.52869 12.9471 4.52869 12.3507ZM5.60869 16.796C5.01222 16.796 4.52869 17.2795 4.52869 17.876C4.52869 18.4724 5.01222 18.956 5.60869 18.956H19.5704C20.1669 18.956 20.6504 18.4724 20.6504 17.876C20.6504 17.2795 20.1669 16.796 19.5704 16.796H5.60869ZM4.52869 23.4013C4.52869 22.8048 5.01222 22.3213 5.60869 22.3213H19.5704C20.1669 22.3213 20.6504 22.8048 20.6504 23.4013C20.6504 23.9978 20.1669 24.4813 19.5704 24.4813H5.60869C5.01222 24.4813 4.52869 23.9978 4.52869 23.4013ZM5.60869 27.8466C5.01222 27.8466 4.52869 28.3301 4.52869 28.9266C4.52869 29.5231 5.01222 30.0066 5.60869 30.0066H24.3913C24.9878 30.0066 25.4713 29.5231 25.4713 28.9266C25.4713 28.3301 24.9878 27.8466 24.3913 27.8466H5.60869Z" fill="#747474"/>
</svg>
