<svg width="35" height="36" viewBox="0 0 35 36" fill="none" xmlns="http://www.w3.org/2000/svg">
<path id="Theme" fill-rule="evenodd" clip-rule="evenodd" d="M13.0226 6.37285V3.13043C13.0226 2.30019 12.6927 1.50395 12.1057 0.916883C11.5186 0.329813 10.7224 0 9.89212 0H3.63126C2.80101 0 2.00478 0.329813 1.41771 0.916883C0.830636 1.50395 0.500824 2.30019 0.500824 3.13043V29.7391C0.500824 31.3996 1.16045 32.9921 2.33459 34.1662C3.50873 35.3404 5.10121 36 6.76169 36C7.93325 36 9.07095 35.6716 10.0517 35.0659L32.9305 21.8559C33.2869 21.6508 33.5994 21.3774 33.8501 21.0515C34.1008 20.7255 34.2849 20.3533 34.3917 19.9562C34.4985 19.5591 34.5261 19.1448 34.4728 18.7371C34.4195 18.3293 34.2863 17.9361 34.081 17.5798L30.9506 12.1579C30.5354 11.4389 29.8517 10.9143 29.0497 10.6994C28.2478 10.4845 27.3934 10.597 26.6744 11.0121L23.8664 12.6337L17.9384 22.8971L25.4832 9.8245C25.8983 9.1055 26.0108 8.25106 25.796 7.44913C25.5811 6.6472 25.0565 5.96346 24.3375 5.54833L18.9156 2.41789C18.5595 2.21211 18.1664 2.07851 17.7587 2.02472C17.3509 1.97093 16.9366 1.99801 16.5393 2.10441C16.1421 2.21081 15.7697 2.39445 15.4434 2.64483C15.1171 2.89521 14.8434 3.20742 14.6379 3.56363L13.0226 6.37285ZM6.76169 9.39145C8.49058 9.39145 9.89212 7.9899 9.89212 6.26101C9.89212 4.53212 8.49058 3.13058 6.76169 3.13058C5.0328 3.13058 3.63125 4.53212 3.63125 6.26101C3.63125 7.9899 5.0328 9.39145 6.76169 9.39145ZM9.89212 15.6523C9.89212 17.3812 8.49058 18.7828 6.76169 18.7828C5.0328 18.7828 3.63125 17.3812 3.63125 15.6523C3.63125 13.9234 5.0328 12.5219 6.76169 12.5219C8.49058 12.5219 9.89212 13.9234 9.89212 15.6523ZM6.76169 28.1741C8.49058 28.1741 9.89212 26.7725 9.89212 25.0436C9.89212 23.3147 8.49058 21.9132 6.76169 21.9132C5.0328 21.9132 3.63125 23.3147 3.63125 25.0436C3.63125 26.7725 5.0328 28.1741 6.76169 28.1741Z" fill="#747474"/>
</svg>
