<svg width="42" height="40" viewBox="0 0 42 40" fill="none" xmlns="http://www.w3.org/2000/svg">
<path id="Vector" d="M34.8871 11.8182L39.7961 6.90909M39.7961 6.90909L34.8871 2M39.7961 6.90909H18.5234C16.7875 6.90909 15.1226 7.5987 13.8951 8.82621C12.6676 10.0537 11.978 11.7186 11.978 13.4545C11.978 15.1905 12.6676 16.8554 13.8951 18.0829C15.1226 19.3104 16.7875 20 18.5234 20H23.4325C25.1685 20 26.8333 20.6896 28.0608 21.9171C29.2884 23.1446 29.978 24.8095 29.978 26.5455C29.978 28.2814 29.2884 29.9463 28.0608 31.1738C26.8333 32.4013 25.1685 33.0909 23.4325 33.0909H2.15979M7.06888 28.1818L2.15979 33.0909M2.15979 33.0909L7.06888 38" stroke="#747474" stroke-width="4" stroke-linecap="round" stroke-linejoin="round"/>
</svg>
